<?xml version="1.0" standalone="no"?><!DOCTYPE svg PUBLIC "-//W3C//DTD SVG 1.1//EN" "http://www.w3.org/Graphics/SVG/1.1/DTD/svg11.dtd"><svg t="1614752163230" class="icon" viewBox="0 0 1280 1024" version="1.1" xmlns="http://www.w3.org/2000/svg" p-id="967" xmlns:xlink="http://www.w3.org/1999/xlink" width="250" height="200"><defs><style type="text/css"></style></defs><path d="M432 576h-96c-19.2 0-32 12.8-32 32v384c0 19.2 12.8 32 32 32h96c19.2 0 32-12.8 32-32V608c0-19.2-12.8-32-32-32z" fill="#707070" p-id="968"></path><path d="M176 768h-96c-19.2 0-32 12.8-32 32v192c0 19.2 12.8 32 32 32h96c19.2 0 32-12.8 32-32v-192c0-19.2-12.8-32-32-32z" fill="#d81e06" p-id="969"></path><path d="M688 384h-96c-19.2 0-32 12.8-32 32v576c0 19.2 12.8 32 32 32h96c19.2 0 32-12.8 32-32V416c0-19.2-12.8-32-32-32zM944 192h-96c-19.2 0-32 12.8-32 32v768c0 19.2 12.8 32 32 32h96c19.2 0 32-12.8 32-32V224c0-19.2-12.8-32-32-32zM1200 0h-96c-19.2 0-32 12.8-32 32v960c0 19.2 12.8 32 32 32h96c19.2 0 32-12.8 32-32V32c0-19.2-12.8-32-32-32z" fill="#707070" p-id="970"></path></svg>