<?xml version="1.0" standalone="no"?><!DOCTYPE svg PUBLIC "-//W3C//DTD SVG 1.1//EN" "http://www.w3.org/Graphics/SVG/1.1/DTD/svg11.dtd"><svg t="1614751860141" class="icon" viewBox="0 0 1280 1024" version="1.1" xmlns="http://www.w3.org/2000/svg" p-id="1361" xmlns:xlink="http://www.w3.org/1999/xlink" width="250" height="200"><defs><style type="text/css"></style></defs><path d="M432.128 576H335.872c-19.456 0-31.744 12.8-31.744 31.744v384c0 19.456 12.8 31.744 31.744 31.744h96.256c19.456 0 31.744-12.8 31.744-31.744v-384c0-18.944-12.8-31.744-31.744-31.744z m-256 192H79.872c-19.456 0-31.744 12.8-31.744 31.744v192c0 19.456 12.8 31.744 31.744 31.744h96.256c19.456 0 31.744-12.8 31.744-31.744v-192c0-18.944-12.8-31.744-31.744-31.744z m512-384h-96.256c-19.456 0-31.744 12.8-31.744 31.744v576c0 19.456 12.8 31.744 31.744 31.744h96.256c19.456 0 31.744-12.8 31.744-31.744V415.744c0-18.944-12.8-31.744-31.744-31.744z m256-192h-96.256c-19.456 0-31.744 12.8-31.744 31.744v768c0 19.456 12.8 31.744 31.744 31.744h96.256c19.456 0 31.744-12.8 31.744-31.744v-768c0-18.944-12.8-31.744-31.744-31.744z" fill="#3D9941" p-id="1362"></path><path d="M1200.128 0h-96.256c-18.944 0-31.744 12.8-31.744 31.744v960c0 19.456 12.8 31.744 31.744 31.744h96.256c18.944 0 31.744-12.8 31.744-31.744V31.744c0-18.944-12.8-31.744-31.744-31.744z" fill="#707070" p-id="1363"></path></svg>