<svg xmlns="http://www.w3.org/2000/svg" xmlns:xlink="http://www.w3.org/1999/xlink" width="512" height="512" preserveAspectRatio="xMidYMid meet" viewBox="0 0 512 512" style="-ms-transform: rotate(360deg); -webkit-transform: rotate(360deg); transform: rotate(360deg);"><path d="M496 192h-48v-48c0-8.8-7.2-16-16-16h-48V80c0-8.8-7.2-16-16-16H144c-8.8 0-16 7.2-16 16v48H80c-8.8 0-16 7.2-16 16v48H16c-8.8 0-16 7.2-16 16v224c0 8.8 7.2 16 16 16h80V320h32v128h64V320h32v128h64V320h32v128h64V320h32v128h80c8.8 0 16-7.2 16-16V208c0-8.8-7.2-16-16-16z" fill="#707070"/></svg>